<svg xmlns="http://www.w3.org/2000/svg" width="24.523" height="26.615" viewBox="0 0 24.523 26.615">
  <g id="ico_print" transform="translate(-1244 -2762.508)">
    <g id="グループ_117571" data-name="グループ 117571" transform="translate(416.255 2090.128)">
      <path id="パス_147530" data-name="パス 147530" d="M1342.553,2953.175h-17.226v.837h3.121v9.054h10.984v-9.054h3.121Zm-3.958,9.054h-9.31v-8.217h9.31Z" transform="translate(-493.933 -2264.07)"/>
      <g id="グループ_117528" data-name="グループ 117528" transform="translate(827.745 672.381)">
        <path id="パス_147531" data-name="パス 147531" d="M850.487,679.5h-1.781v-5.83a1.289,1.289,0,0,0-1.287-1.287H832.6a1.288,1.288,0,0,0-1.287,1.287v5.83h-1.781a1.784,1.784,0,0,0-1.782,1.782v9.65a1.784,1.784,0,0,0,1.782,1.782h3.8v-.837h-3.8a.946.946,0,0,1-.945-.945v-9.65a.946.946,0,0,1,.945-.945h20.96a.946.946,0,0,1,.945.945v9.65a.946.946,0,0,1-.945.945h-3.8v.837h3.8a1.784,1.784,0,0,0,1.782-1.782v-9.65A1.784,1.784,0,0,0,850.487,679.5Zm-18.341-5.83a.45.45,0,0,1,.45-.45h14.823a.45.45,0,0,1,.45.45v5.83H832.146Z" transform="translate(-827.745 -672.381)"/>
        <g id="グループ_117527" data-name="グループ 117527" transform="translate(16.374 8.861)">
          <path id="パス_147532" data-name="パス 147532" d="M3493.508,1883.378a1.253,1.253,0,1,1,1.252-1.253A1.254,1.254,0,0,1,3493.508,1883.378Zm0-1.668a.415.415,0,1,0,.415.415A.416.416,0,0,0,3493.508,1881.71Z" transform="translate(-3489.092 -1880.873)"/>
          <path id="パス_147533" data-name="パス 147533" d="M3062.067,1883.378a1.253,1.253,0,1,1,1.253-1.253A1.254,1.254,0,0,1,3062.067,1883.378Zm0-1.668a.415.415,0,1,0,.415.415A.416.416,0,0,0,3062.067,1881.71Z" transform="translate(-3060.814 -1880.873)"/>
        </g>
      </g>
    </g>
  </g>
</svg>
