<svg xmlns="http://www.w3.org/2000/svg" width="29.04" height="16.742" viewBox="0 0 29.04 16.742"><g transform="translate(-25 -117)"><rect width="15.637" height="3.723" rx="1.862" transform="translate(25 118.85)" fill="#474645"/><path d="M370.239,119.034h-3.785a3.366,3.366,0,1,0-.278,3.174.979.979,0,0,0,.119.008h3.944a.975.975,0,0,0,.975-.975v-1.232A.975.975,0,0,0,370.239,119.034Zm-6.875,3.129a1.8,1.8,0,1,1,1.8-1.8A1.8,1.8,0,0,1,363.364,122.163Z" transform="translate(-317.528)" fill="#474645"/><rect width="16.381" height="2.978" rx="1.489" transform="translate(37.658 129.275)" fill="#474645"/><path d="M32.849,309a3.369,3.369,0,0,0-3.089,2.034H25.975a.975.975,0,0,0-.975.975v1.232a.975.975,0,0,0,.975.975h3.944a.976.976,0,0,0,.119-.008A3.363,3.363,0,1,0,32.849,309Zm0,5.163a1.8,1.8,0,1,1,1.8-1.8A1.8,1.8,0,0,1,32.849,314.163Z" transform="translate(0 -181.986)" fill="#474645"/></g></svg>