<?xml version="1.0" encoding="utf-8"?>
<!-- Generator: Adobe Illustrator 26.0.3, SVG Export Plug-In . SVG Version: 6.00 Build 0)  -->
<svg version="1.1" id="レイヤー_1" xmlns="http://www.w3.org/2000/svg" xmlns:xlink="http://www.w3.org/1999/xlink" x="0px"
	 y="0px" viewBox="0 0 80 80" style="enable-background:new 0 0 80 80;" xml:space="preserve">
<style type="text/css">
	.st0{fill:#231815;}
</style>
<g>
	<path id="パス_2203" class="st0" d="M35.3,24.1l11,8v13.6h-8.8v-7.3h-4.7v7.3h-8.8V32L35.3,24.1z"/>
	<path class="st0" d="M76.8,71L63.7,57.9c-0.6-0.6-1.3-0.8-2.1-0.8c4.1-5.5,6.6-12.4,6.6-19.9c0-18.1-14.8-32.9-32.9-32.9
		C17.2,4.3,2.4,19.1,2.4,37.2S17,70.1,35.3,70.1c9.4,0,17.8-3.8,23.7-10.1c0.1,0.6,0.3,1.2,0.8,1.7l13.1,13.1
		c0.4,0.4,1.3,0.9,1.9,0.9c0.6,0,1.5-0.2,1.9-0.6C77.9,73.8,77.9,72.1,76.8,71z M35.3,63.7c-14.6,0-26.7-12-26.7-26.7
		s11.8-26.7,26.7-26.7s26.9,12,26.9,26.7C62.2,51.8,50.1,63.9,35.3,63.7z"/>
</g>
</svg>
