<svg xmlns="http://www.w3.org/2000/svg" viewBox="0 0 309.07 108.92"><defs><style>.cls-1{fill:#9e9e9f;}</style></defs><title>アセット 2</title><g id="レイヤー_2" data-name="レイヤー 2"><g id="レイヤー_1-2" data-name="レイヤー 1"><path class="cls-1" d="M251,56.41V81.87a16.52,16.52,0,1,0,0,21.06v4.79h3.87V56.41Zm-12.72,48.64A12.65,12.65,0,1,1,250.94,92.4,12.67,12.67,0,0,1,238.29,105.05Z"/><path class="cls-1" d="M305.21,75.93v5.94a16.52,16.52,0,1,0,0,21.06v4.79h3.86V75.93Zm-12.72,29.12A12.65,12.65,0,1,1,305.14,92.4,12.67,12.67,0,0,1,292.49,105.05Z"/><rect class="cls-1" x="264.38" y="71.38" width="3.87" height="36.34"/><rect class="cls-1" x="264.38" y="56.21" width="3.87" height="9.19"/><path class="cls-1" d="M217.05,94.33a17.55,17.55,0,0,0,.11-1.93,16.53,16.53,0,1,0-.9,5.37h-4.18a12.63,12.63,0,0,1-23.93-3.44ZM200.64,79.75a12.66,12.66,0,0,1,12.49,10.72h-25A12.66,12.66,0,0,1,200.64,79.75Z"/><path class="cls-1" d="M165.43,72.89a12,12,0,0,0-10.09,5.63,12,12,0,0,0-10.09-5.63,11.84,11.84,0,0,0-8.16,3.29V74.11h-3.87v33.61h3.87V85.19a8.16,8.16,0,1,1,16.31,0v22.56h3.88V85.15a8.16,8.16,0,1,1,16.32,0v22.53h3.87V85.19A12.18,12.18,0,0,0,165.43,72.89Z"/><path class="cls-1" d="M70.36,0V3.43H96.93V107.72h2.86c1.23,0,9.42.15,9.42-12.85V3.43h22.23c2.83,0,3.91-.63,4.33-3.43Z"/><path class="cls-1" d="M12.22,88.56l0-79.17c0-5.22,4.32-6,6.44-6h21.8c7.84,0,10,4.94,10,11.13V94.55h2.87c1.22,0,9.41.15,9.41-12.85,0-13.65,0-64,0-68.66S59.55,0,48,0H10.84C6.54,0,0,1,0,12.86V90.54c0,7.41,6.66,17,17.49,17H74c2.82,0,6.31.15,6.86-3.58h-49S12.24,106,12.22,88.56Z"/></g></g></svg>